:SAMPLES-PER-SECOND 30
:FULLY-SPECIFIED
:DEGREES
243
root  -27.7754 34.3392 3.66074 -175.91 61.4467 176.643
RightUpLeg  -8.52462 -16.6292 -8.97767
RightLeg  11.2819 -2.02731 -0.269396
RightFoot  7.20283 0.0443565 -0.0163349
RightToes  -32.9553 -0.16551 -0.270292
Spine  -2.05542 1.00417 -1.07088
Spine1  -4.03889 2.23737 -1.47478
HEad  -42.9881 9.981 -5.94958
LeftShoulder1  -1.94126e-019 -3.10601e-018 -2.51263e-017
LeftArm  -20.5829 31.9309 -72.7329
LeftForeArm  35.9459 -6.05365 -1.04682
LeftHand  -0.474218 -0.833668 8.97427
RightShoulder  -4.96962e-017 0 -2.36833e-017
RightArm  -36.6617 -26.981 75.2844
RightForeArm  62.1325 9.28019 1.49532
RightHand  -0.327845 -1.8816 -10.6384
LeftUpLeg  -9.09673 -0.85721 -2.91064
LeftLeg  14.3351 16.6031 3.07472
LeftFoot  -0.94844 -0.00132037 -0.120636
LeftToes  -13.6712 1.49739e-006 1.00523e-007
244
root  -27.8142 34.3501 3.64586 -175.974 60.9297 176.538
RightUpLeg  -8.34604 -16.9735 -9.09291
RightLeg  11.0718 -2.18981 -0.282843
RightFoot  7.29314 0.0465021 -0.0450988
RightToes  -32.9195 -0.166298 -0.27045
Spine  -2.02319 0.961458 -1.16238
Spine1  -4.00207 2.12261 -1.65527
HEad  -42.9018 9.64285 -5.79152
LeftShoulder1  -1.94126e-019 -3.10601e-018 -2.51263e-017
LeftArm  -20.7074 31.2493 -73.1485
LeftForeArm  35.9102 -6.37629 -1.10427
LeftHand  -0.465612 -0.86066 8.77769
RightShoulder  -4.96962e-017 0 -2.36833e-017
RightArm  -36.4041 -26.6548 75.5785
RightForeArm  61.9689 9.52023 1.51109
RightHand  -0.32899 -1.78485 -10.5825
LeftUpLeg  -9.13637 -1.21249 -3.00289
LeftLeg  14.1882 16.449 3.00409
LeftFoot  -0.8167 -0.00210764 -0.0819196
LeftToes  -13.6924 1.49739e-006 1.00523e-007
245
root  -27.8436 34.3628 3.63305 -176.024 60.4134 176.413
RightUpLeg  -8.11954 -17.4159 -9.21116
RightLeg  10.727 -2.24162 -0.275801
RightFoot  7.45541 0.0479009 -0.0631263
RightToes  -33.1625 -0.167064 -0.270725
Spine  -1.98837 0.90277 -1.23742
Spine1  -3.96296 1.97743 -1.80065
HEad  -43.1569 9.45653 -5.72325
LeftShoulder1  -1.94126e-019 -3.10601e-018 -2.51263e-017
LeftArm  -20.3467 30.4654 -73.8757
LeftForeArm  35.4109 -7.11962 -1.23673
LeftHand  -0.456002 -0.982336 8.44461
RightShoulder  -4.96962e-017 0 -2.36833e-017
RightArm  -35.6212 -26.1229 75.8319
RightForeArm  61.3346 9.89119 1.52873
RightHand  -0.33093 -1.82157 -10.5874
LeftUpLeg  -9.21691 -1.50576 -3.09605
LeftLeg  14.0676 16.2651 2.93665
LeftFoot  -0.745234 -0.00144592 -0.0608079
LeftToes  -13.6537 1.49739e-006 1.00523e-007
246
root  -27.8723 34.3831 3.63061 -176.046 60.0765 176.396
RightUpLeg  -7.82595 -17.5883 -9.25726
RightLeg  10.2672 -2.39699 -0.275401
RightFoot  7.67825 0.0505324 -0.0987057
RightToes  -33.1202 -0.167786 -0.271153
Spine  -1.94275 0.870915 -1.27312
Spine1  -3.9052 1.88535 -1.87157
HEad  -43.808 9.41295 -5.55872
LeftShoulder1  -1.94126e-019 -3.10601e-018 -2.51263e-017
LeftArm  -20.2126 29.7245 -74.9089
LeftForeArm  35.2236 -8.26406 -1.44068
LeftHand  -0.447781 -1.22216 8.01279
RightShoulder  -4.96962e-017 0 -2.36833e-017
RightArm  -35.2849 -25.431 76.0687
RightForeArm  60.663 10.395 1.53844
RightHand  -0.347558 -1.53239 -10.3281
LeftUpLeg  -9.14438 -1.87282 -3.12695
LeftLeg  13.8034 16.3108 2.86826
LeftFoot  -0.574757 -0.000882113 -0.0143576
LeftToes  -13.6549 1.49739e-006 1.00523e-007
247
root  -27.8886 34.4177 3.62636 -176.106 59.8303 176.382
RightUpLeg  -7.34406 -17.8434 -9.30813
RightLeg  9.49215 -2.36304 -0.239086
RightFoot  8.05494 0.0521003 -0.119017
RightToes  -33.1327 -0.168446 -0.271768
Spine  -1.87648 0.836283 -1.30945
Spine1  -3.80644 1.78624 -1.94589
HEad  -44.7745 9.40182 -5.33503
LeftShoulder1  -1.94126e-019 -3.10601e-018 -2.51263e-017
LeftArm  -18.9501 28.8626 -75.9709
LeftForeArm  34.6486 -9.62979 -1.68527
LeftHand  -0.432479 -1.49448 7.45854
RightShoulder  -4.96962e-017 0 -2.36833e-017
RightArm  -34.3253 -24.5782 76.4449
RightForeArm  59.3668 11.1331 1.52768
RightHand  -0.301139 -1.96659 -9.99964
LeftUpLeg  -8.89543 -2.08753 -3.15118
LeftLeg  13.2899 16.323 2.72209
LeftFoot  -0.299068 -0.000255348 0.0636271
LeftToes  -13.5612 1.49739e-006 1.00523e-007
248
root  -27.8973 34.4609 3.63295 -176.096 59.7685 176.386
RightUpLeg  -6.89773 -17.9517 -9.29285
RightLeg  8.56782 -2.33634 -0.19831
RightFoot  8.52025 0.0541188 -0.145694
RightToes  -33.1183 -0.169024 -0.272604
Spine  -1.87418 0.850451 -1.34163
Spine1  -3.8294 1.78169 -2.01524
HEad  -45.6835 9.32756 -4.82835
LeftShoulder1  -1.94126e-019 -3.10601e-018 -2.51263e-017
LeftArm  -17.3239 28.0065 -77.0193
LeftForeArm  34.426 -11.1049 -1.91234
LeftHand  -0.413936 -1.81966 6.84767
RightShoulder  -4.96962e-017 0 -2.36833e-017
RightArm  -32.7481 -23.8801 76.7753
RightForeArm  58.1996 11.9494 1.48082
RightHand  -0.305262 -1.88037 -9.90129
LeftUpLeg  -8.55918 -2.17709 -3.14203
LeftLeg  12.5087 16.3754 2.50514
LeftFoot  0.124012 -2.4902e-005 0.184796
LeftToes  -13.6543 1.49739e-006 1.00523e-007
249
root  -27.8962 34.5074 3.64082 -176.076 59.8601 176.328
RightUpLeg  -6.493 -18.1556 -9.2825
RightLeg  7.53393 -2.05061 -0.136712
RightFoot  9.02775 0.0533794 -0.132881
RightToes  -33.2175 -0.169501 -0.273695
Spine  -1.93641 0.878275 -1.37597
Spine1  -3.97194 1.81405 -2.08908
HEad  -46.3559 9.27533 -4.36237
LeftShoulder1  -1.94126e-019 -3.10601e-018 -2.51263e-017
LeftArm  -14.935 27.3287 -77.9509
LeftForeArm  33.7514 -12.8368 -2.09385
LeftHand  -0.40184 -2.01942 6.48814
RightShoulder  -4.96962e-017 0 -2.36833e-017
RightArm  -31.1727 -23.1936 77.1214
RightForeArm  57.1368 12.7482 1.40759
RightHand  -0.318697 -1.67284 -9.79443
LeftUpLeg  -8.15208 -2.05246 -3.15342
LeftLeg  11.4885 16.3764 2.21211
LeftFoot  0.601483 -0.000850647 0.323667
LeftToes  -13.6933 1.49739e-006 1.00523e-007
250
root  -27.8916 34.5561 3.64731 -176.107 60.0624 176.182
RightUpLeg  -6.05028 -18.4606 -9.31113
RightLeg  6.31948 -1.52614 -0.0690633
RightFoot  9.6192 0.0497241 -0.0776922
RightToes  -33.5295 -0.169858 -0.275733
Spine  -2.04929 0.884395 -1.40502
Spine1  -4.20421 1.81273 -2.1503
HEad  -46.2783 9.30332 -4.08321
LeftShoulder1  -1.94126e-019 -3.10601e-018 -2.51263e-017
LeftArm  -12.324 26.6772 -78.6997
LeftForeArm  32.6956 -14.5129 -2.19175
LeftHand  -0.381998 -2.24234 6.01275
RightShoulder  -4.96962e-017 0 -2.36833e-017
RightArm  -29.5799 -22.4694 77.463
RightForeArm  56.1776 13.4836 1.32548
RightHand  -0.321846 -1.61531 -9.74912
LeftUpLeg  -7.60369 -1.98716 -3.21038
LeftLeg  10.1604 16.5474 1.85104
LeftFoot  1.20941 -0.00363937 0.506401
LeftToes  -13.7778 1.49739e-006 1.00523e-007
251
root  -27.8761 34.5993 3.64828 -176.171 60.3187 176.033
RightUpLeg  -5.59702 -18.651 -9.3343
RightLeg  5.14516 -1.10215 -0.0270493
RightFoot  10.1804 0.0464596 -0.0268459
RightToes  -33.6813 -0.170075 -0.276832
Spine  -2.20889 0.889742 -1.44689
Spine1  -4.5234 1.81799 -2.23835
HEad  -45.6906 9.25818 -3.83125
LeftShoulder1  -1.94126e-019 -3.10601e-018 -2.51263e-017
LeftArm  -10.0964 26.2841 -79.227
LeftForeArm  32.3449 -17.0949 -2.45681
LeftHand  -0.378157 -2.41021 5.83823
RightShoulder  -4.96962e-017 0 -2.36833e-017
RightArm  -28.3438 -21.8658 77.7855
RightForeArm  55.6736 14.0505 1.25567
RightHand  -0.374885 -0.94508 -9.73908
LeftUpLeg  -6.96547 -1.79455 -3.26864
LeftLeg  8.76209 16.638 1.45693
LeftFoot  1.80641 -0.00827838 0.686679
LeftToes  -13.8589 1.49739e-006 1.00523e-007
252
root  -27.8544 34.625 3.64522 -176.363 60.6107 175.822
RightUpLeg  -5.23598 -18.7465 -9.42526
RightLeg  4.33907 -0.698812 -0.00703943
RightFoot  10.4994 0.0423403 0.0373157
RightToes  -33.6433 -0.169797 -0.277709
Spine  -2.34163 0.91484 -1.49497
Spine1  -4.78942 1.86656 -2.32599
HEad  -45.0589 9.17338 -3.72092
LeftShoulder1  -1.94126e-019 -3.10601e-018 -2.51263e-017
LeftArm  -8.09497 25.7858 -79.5605
LeftForeArm  31.9905 -19.7562 -2.79256
LeftHand  -0.369231 -2.57116 5.60135
RightShoulder  -4.96962e-017 0 -2.36833e-017
RightArm  -27.3741 -21.1414 78.1804
RightForeArm  55.4468 14.489 1.20146
RightHand  -0.348005 -1.32039 -9.82512
LeftUpLeg  -6.36639 -1.52124 -3.35917
LeftLeg  7.61553 16.6829 1.12987
LeftFoot  2.33 -0.0139461 0.847354
LeftToes  -14.0785 1.49739e-006 1.00523e-007
253
root  -27.8261 34.6428 3.64531 -176.465 60.8998 175.732
RightUpLeg  -4.90174 -18.9115 -9.45557
RightLeg  3.63733 -0.23142 0.00102209
RightFoot  10.7848 0.0371833 0.117272
RightToes  -33.8654 -0.169987 -0.278389
Spine  -2.42375 0.927974 -1.52336
Spine1  -4.94915 1.88782 -2.37203
HEad  -44.6435 9.14851 -3.742
LeftShoulder1  -1.94126e-019 -3.10601e-018 -2.51263e-017
LeftArm  -6.90775 25.1609 -79.8369
LeftForeArm  32.1237 -21.9576 -3.0947
LeftHand  -0.370748 -2.60752 5.60051
RightShoulder  -4.96962e-017 0 -2.36833e-017
RightArm  -26.3597 -20.5121 78.4617
RightForeArm  54.8828 15.0053 1.14859
RightHand  -0.353331 -1.20219 -9.70876
LeftUpLeg  -5.75896 -1.18176 -3.37397
LeftLeg  6.50462 16.6343 0.807776
LeftFoot  2.73241 -0.0197326 0.967035
LeftToes  -14.0854 1.49739e-006 1.00523e-007
254
root  -27.8087 34.6586 3.63943 -176.594 61.1644 175.632
RightUpLeg  -4.6231 -18.8655 -9.50546
RightLeg  3.0663 0.0198954 0.000518144
RightFoot  11.0406 0.0346246 0.160927
RightToes  -34.0447 -0.170263 -0.278895
Spine  -2.41838 0.908038 -1.52503
Spine1  -4.92932 1.84164 -2.36067
HEad  -45.2151 9.40981 -3.84595
LeftShoulder1  -1.94126e-019 -3.10601e-018 -2.51263e-017
LeftArm  -6.12295 24.4551 -80.0847
LeftForeArm  31.9832 -23.725 -3.38013
LeftHand  -0.368734 -2.61736 5.5651
RightShoulder  -4.96962e-017 0 -2.36833e-017
RightArm  -25.4362 -19.9589 78.6582
RightForeArm  54.3319 15.7288 1.0943
RightHand  -0.360254 -1.05236 -9.57359
LeftUpLeg  -5.14833 -0.970445 -3.41753
LeftLeg  5.40729 16.6803 0.494669
LeftFoot  3.15809 -0.0266878 1.09859
LeftToes  -14.1045 1.49739e-006 1.00523e-007
255
root  -27.8021 34.671 3.64309 -176.722 61.3587 175.55
RightUpLeg  -4.42614 -18.6477 -9.53216
RightLeg  2.69035 -0.00332219 0.000721172
RightFoot  11.19 0.0356239 0.154436
RightToes  -33.9497 -0.170617 -0.279252
Spine  -2.3671 0.839439 -1.52026
Spine1  -4.81767 1.69806 -2.33693
HEad  -46.211 9.67454 -4.04154
LeftShoulder1  -1.94126e-019 -3.10601e-018 -2.51263e-017
LeftArm  -5.77079 23.8645 -80.2322
LeftForeArm  31.7004 -25.107 -3.65746
LeftHand  -0.378991 -2.59688 5.72715
RightShoulder  -4.96962e-017 0 -2.36833e-017
RightArm  -24.5736 -19.6659 78.8428
RightForeArm  53.7079 16.8877 1.16307
RightHand  -0.363078 -1.00905 -9.5845
LeftUpLeg  -4.67135 -0.656595 -3.44077
LeftLeg  4.5579 16.5691 0.249235
LeftFoot  3.54209 -0.032572 1.20739
LeftToes  -14.3832 1.49739e-006 1.00523e-007
